<svg aria-hidden="true" style="position: absolute; width: 0; height: 0; overflow: hidden;" version="1.1" xmlns="http://www.w3.org/2000/svg" xmlns:xlink="http://www.w3.org/1999/xlink">
<defs>
<symbol id="close" viewBox="0 0 32 32">
<path d="M23.874 7.221l0.905 0.905-16.654 16.653-0.905-0.904 16.654-16.653z"></path>
<path d="M8.125 7.221l16.654 16.653-0.905 0.906-16.654-16.653 0.905-0.906z"></path>
</symbol>
<symbol id="star" viewBox="0 0 32 32">
<path d="M17.147 13.923l-2.48-5.843-2.483 5.849-6.324 0.553 4.795 4.169-1.427 6.187 5.447-3.273 5.44 3.269-1.428-6.192 4.791-4.164-6.331-0.556zM22.121 27.593l-7.447-4.475-7.453 4.479 1.955-8.467-6.563-5.704 8.655-0.756 3.399-8.004 3.395 7.997 8.661 0.759-6.557 5.7 1.956 8.471z"></path>
</symbol>
<symbol id="chevron-down" viewBox="0 0 32 32">
<path d="M24.209 11.457l-7.543 7.543-7.543-7.543 0.943-0.943 6.6 6.6 6.6-6.6 0.943 0.943z"></path>
</symbol>
<symbol id="chevron-left" viewBox="0 0 32 32">
<path d="M20.543 24.209l-7.543-7.543 7.543-7.543 0.943 0.943-6.6 6.6 6.6 6.6-0.943 0.943z"></path>
</symbol>
<symbol id="chevron-up" viewBox="0 0 32 32">
<path d="M7.791 20.543l7.543-7.543 7.543 7.543-0.943 0.943-6.6-6.6-6.6 6.6-0.943-0.943z"></path>
</symbol>
<symbol id="arrow-curle-down" viewBox="0 0 6 32">
<path d="M4.773 31.267v0zM5.246 32l-0.149-3.025-2.545 1.642 2.694 1.383zM5.030 0.376c-6.413 9.298-6.601 21.542-0.478 31.033l0.441-0.284c-6.009-9.313-5.824-21.327 0.469-30.451l-0.432-0.298z"></path>
</symbol>
<symbol id="arrow" viewBox="0 0 213 32">
<path d="M213.333 16l-26.667-15.396v30.792l26.667-15.396zM0 18.667h189.333v-5.333h-189.333v5.333z"></path>
</symbol>
<symbol id="line" viewBox="0 0 208 32">
<path d="M0 0h208v32h-208v-32z"></path>
</symbol>
<symbol id="cart" viewBox="0 0 32 32">
<path d="M29.374 25.835l-1.778-16c-0.040-0.367-0.215-0.706-0.49-0.952s-0.631-0.382-1.001-0.382h-4.629c-0.125-1.366-0.756-2.637-1.769-3.562s-2.336-1.438-3.707-1.438c-1.372 0-2.694 0.513-3.708 1.438s-1.644 2.195-1.769 3.562h-4.629c-0.369-0-0.726 0.136-1.001 0.382s-0.45 0.585-0.49 0.952l-1.778 16c-0.023 0.21-0.002 0.422 0.062 0.623s0.17 0.386 0.311 0.543c0.141 0.157 0.313 0.283 0.506 0.369s0.401 0.131 0.612 0.131h23.765c0.211 0 0.42-0.044 0.612-0.131s0.365-0.212 0.506-0.369c0.141-0.157 0.247-0.342 0.311-0.543s0.086-0.413 0.062-0.623zM16 4.5c1.106 0.001 2.174 0.41 2.998 1.148s1.349 1.753 1.473 2.852h-8.943c0.124-1.099 0.649-2.115 1.473-2.852s1.892-1.146 2.998-1.148zM28.256 26.334c-0.047 0.053-0.104 0.095-0.168 0.124s-0.134 0.043-0.204 0.043h-23.765c-0.070 0-0.14-0.015-0.204-0.044s-0.122-0.071-0.168-0.123-0.082-0.114-0.104-0.181c-0.021-0.067-0.029-0.138-0.021-0.208l1.778-16c0.013-0.122 0.072-0.235 0.163-0.317s0.21-0.127 0.334-0.127h4.605v3.5c0 0.133 0.053 0.26 0.146 0.354s0.221 0.146 0.354 0.146c0.133 0 0.26-0.053 0.354-0.146s0.146-0.221 0.146-0.354v-3.5h9v3.5c0 0.133 0.053 0.26 0.146 0.354s0.221 0.146 0.354 0.146c0.133 0 0.26-0.053 0.354-0.146s0.146-0.221 0.146-0.354v-3.5h4.605c0.123-0 0.242 0.045 0.334 0.127s0.15 0.195 0.163 0.317l1.778 16c0.008 0.070 0.001 0.141-0.020 0.208s-0.057 0.129-0.104 0.181z"></path>
</symbol>
<symbol id="call" viewBox="0 0 32 32">
<path d="M25.999 29.333c1.103 0 2-0.897 2-2v-4.667c0-1.103-0.897-2-2-2-1.56 0-3.093-0.245-4.56-0.729-0.351-0.111-0.725-0.124-1.082-0.039s-0.685 0.266-0.948 0.523l-1.92 1.92c-3.319-1.802-6.044-4.526-7.847-7.844l1.904-1.916c0.549-0.509 0.747-1.284 0.512-2.029-0.483-1.469-0.728-3.006-0.725-4.552 0-1.103-0.897-2-2-2h-4.667c-1.103 0-2 0.897-2 2 0 12.867 10.467 23.333 23.333 23.333zM4.666 5.333h4.667c0.177 0 0.346 0.070 0.471 0.195s0.195 0.295 0.195 0.471c0 1.703 0.267 3.375 0.791 4.96 0.039 0.115 0.043 0.239 0.013 0.356s-0.093 0.224-0.182 0.306l-2.608 2.621c2.183 4.304 5.407 7.528 9.731 9.729l2.599-2.6c0.089-0.088 0.2-0.15 0.321-0.179s0.248-0.026 0.367 0.011c1.595 0.528 3.267 0.795 4.969 0.795 0.367 0 0.667 0.3 0.667 0.667v4.667c0 0.367-0.3 0.667-0.667 0.667-12.131 0-22-9.869-22-22 0-0.177 0.070-0.346 0.195-0.471s0.295-0.195 0.471-0.195z"></path>
</symbol>
<symbol id="search" viewBox="0 0 32 32">
<path d="M28.354 27.646l-5.733-5.733c1.94-2.125 2.972-4.925 2.874-7.8s-1.317-5.599-3.397-7.587c-2.080-1.988-4.856-3.083-7.733-3.051s-5.628 1.19-7.662 3.224c-2.035 2.034-3.193 4.785-3.225 7.662s1.062 5.653 3.049 7.734c1.988 2.080 4.711 3.3 7.587 3.399s5.676-0.933 7.801-2.873l5.733 5.733c0.094 0.094 0.221 0.146 0.354 0.146s0.26-0.053 0.353-0.146c0.094-0.094 0.146-0.221 0.146-0.354s-0.053-0.26-0.146-0.354zM4.501 14.5c0-1.978 0.587-3.911 1.685-5.556s2.661-2.926 4.488-3.683c1.827-0.757 3.838-0.955 5.778-0.569s3.722 1.338 5.12 2.737c1.399 1.399 2.351 3.18 2.737 5.12s0.188 3.95-0.569 5.778c-0.757 1.827-2.039 3.389-3.683 4.488s-3.578 1.685-5.556 1.685c-2.651-0.003-5.193-1.057-7.068-2.932s-2.929-4.416-2.932-7.068z"></path>
</symbol>
<symbol id="phone" viewBox="0 0 32 32">
<path d="M26.679 32h-21.354c-2.669 0-3.372-0.391-4.153-1.172s-1.185-1.495-1.172-4.162v-21.333c0-2.667 0.391-3.38 1.172-4.161s1.484-1.172 4.153-1.172h21.354c1.104 0 2.687 0.017 4.004 1.333s1.317 2.896 1.317 4v21.333c0.018 2.667-0.391 3.38-1.172 4.162s-1.479 1.172-4.149 1.172zM10 12v-3c0-0.562-0.172-1.115-0.516-1.656s-0.724-0.927-1.141-1.156-0.74-0.24-0.969-0.031l-2.281 2.312c-0.625 0.625-0.979 1.464-1.062 2.516s0.078 2.198 0.484 3.437c0.406 1.24 1.057 2.552 1.953 3.938s1.969 2.703 3.219 3.953c1.25 1.25 2.568 2.323 3.953 3.219s2.698 1.552 3.937 1.969c1.24 0.417 2.385 0.583 3.437 0.5s1.891-0.438 2.516-1.062l2.312-2.313c0.208-0.208 0.198-0.526-0.031-0.953s-0.615-0.812-1.156-1.156c-0.542-0.344-1.094-0.516-1.656-0.516h-3l-2.031 1.25c-0.937-0.25-2.094-0.927-3.469-2.031s-2.614-2.344-3.719-3.719c-1.104-1.375-1.781-2.531-2.031-3.469l1.25-2.031zM21.937 17l2.031 0.344c-0.167-2.5-1.135-4.635-2.906-6.406s-3.896-2.74-6.375-2.906l0.312 2.031c1.812 0.229 3.364 0.99 4.656 2.281s2.052 2.844 2.281 4.656zM15.375 12.156l0.375 2.25c0.812 0.396 1.427 1.010 1.844 1.844l2.25 0.375c-0.271-1.104-0.807-2.057-1.609-2.859s-1.755-1.338-2.859-1.609zM14 4l0.344 2.031c2.083 0.042 4.005 0.589 5.765 1.641s3.167 2.458 4.219 4.219 1.599 3.682 1.641 5.766l2.031 0.344c0-1.896-0.37-3.708-1.109-5.438s-1.734-3.219-2.984-4.469c-1.25-1.25-2.74-2.245-4.469-2.984s-3.542-1.109-5.437-1.109z"></path>
</symbol>
<symbol id="whatsup" viewBox="0 0 32 32">
<path d="M31.984 7.276c-0.013-0.686-0.068-1.372-0.165-2.051-0.115-0.605-0.31-1.191-0.581-1.744-0.592-1.169-1.542-2.119-2.71-2.712-0.549-0.269-1.132-0.464-1.733-0.579-0.685-0.098-1.375-0.155-2.067-0.168-0.293-0.011-0.672-0.016-0.848-0.016l-15.757-0.005c-0.176 0-0.555 0.005-0.848 0.016-0.686 0.013-1.371 0.068-2.051 0.165-0.605 0.115-1.191 0.31-1.744 0.581-1.169 0.592-2.119 1.542-2.712 2.711-0.269 0.549-0.464 1.132-0.579 1.733-0.099 0.685-0.155 1.375-0.17 2.067-0.010 0.293-0.016 0.672-0.016 0.848l-0.003 15.758c0 0.176 0.005 0.555 0.016 0.848 0.013 0.686 0.068 1.372 0.165 2.051 0.115 0.605 0.31 1.191 0.581 1.744 0.592 1.169 1.542 2.119 2.71 2.712 0.549 0.269 1.132 0.464 1.733 0.579 0.685 0.098 1.375 0.155 2.067 0.168 0.293 0.011 0.672 0.016 0.848 0.016l15.757 0.003c0.176 0 0.555-0.005 0.848-0.016 0.686-0.013 1.371-0.068 2.051-0.165 0.605-0.115 1.191-0.31 1.744-0.581 1.17-0.592 2.12-1.542 2.714-2.711 0.269-0.549 0.464-1.132 0.579-1.733 0.099-0.685 0.156-1.375 0.17-2.067 0.010-0.293 0.016-0.672 0.016-0.848l0.002-15.756c0-0.176-0.005-0.555-0.016-0.848zM16.347 27.133h-0.005c-1.905-0-3.779-0.478-5.451-1.389l-6.048 1.586 1.619-5.909c-1.254-2.176-1.755-4.704-1.425-7.193s1.471-4.8 3.247-6.575c1.777-1.774 4.089-2.913 6.578-3.24s5.017 0.177 7.191 1.434 3.873 3.195 4.833 5.515c0.96 2.32 1.128 4.892 0.478 7.318s-2.082 4.568-4.075 6.097c-1.992 1.528-4.433 2.357-6.944 2.357z"></path>
<path d="M16.352 6.241c-1.694-0-3.358 0.453-4.817 1.313s-2.662 2.096-3.483 3.578-1.229 3.158-1.182 4.851c0.046 1.694 0.545 3.344 1.446 4.78l0.226 0.358-0.958 3.498 3.589-0.941 0.346 0.205c1.461 0.865 3.128 1.322 4.826 1.322h0.005c2.515 0 4.927-0.998 6.706-2.776s2.778-4.19 2.778-6.705c0-2.515-0.998-4.927-2.776-6.706s-4.19-2.778-6.705-2.779l0.002 0.002zM21.927 19.794c-0.21 0.346-0.489 0.646-0.82 0.879s-0.707 0.395-1.103 0.476c-0.599 0.103-1.214 0.064-1.795-0.112-0.552-0.172-1.094-0.373-1.624-0.602-1.968-0.988-3.646-2.471-4.869-4.303-0.667-0.848-1.072-1.872-1.165-2.947-0.008-0.444 0.077-0.884 0.249-1.293s0.427-0.778 0.749-1.083c0.095-0.109 0.212-0.196 0.343-0.258s0.273-0.095 0.417-0.099c0.189 0 0.379 0 0.546 0.010 0.176 0.008 0.41-0.067 0.64 0.49 0.24 0.57 0.81 1.973 0.88 2.115 0.045 0.075 0.071 0.159 0.075 0.247s-0.013 0.174-0.051 0.253c-0.072 0.171-0.168 0.331-0.285 0.475-0.144 0.166-0.299 0.371-0.427 0.499-0.144 0.142-0.291 0.296-0.126 0.581 0.428 0.733 0.962 1.398 1.586 1.974 0.676 0.601 1.452 1.080 2.293 1.414 0.285 0.144 0.451 0.118 0.618-0.072s0.712-0.832 0.902-1.117c0.19-0.285 0.379-0.237 0.64-0.142s1.664 0.784 1.949 0.928c0.285 0.144 0.475 0.213 0.546 0.331 0.078 0.458 0.020 0.929-0.166 1.355z"></path>
</symbol>
<symbol id="instagram" viewBox="0 0 32 32">
<path d="M15.996 10.664c-2.938 0-5.336 2.398-5.336 5.336s2.398 5.336 5.336 5.336c2.938 0 5.336-2.398 5.336-5.336s-2.398-5.336-5.336-5.336zM31.998 16c0-2.21 0.020-4.399-0.104-6.604-0.124-2.562 0.064-5.612-1.809-7.485-1.877-1.877-4.919-1.681-7.481-1.805-2.21-0.124-4.399-0.104-6.604-0.104-2.209 0-4.399-0.020-6.604 0.104-2.562 0.124-5.616-0.069-7.489 1.805-1.877 1.877-1.677 4.924-1.801 7.485-0.124 2.21-0.104 4.399-0.104 6.604s-0.020 4.399 0.104 6.604c0.124 2.562-0.072 5.611 1.801 7.485 1.877 1.877 4.927 1.682 7.489 1.806 2.209 0.124 4.399 0.104 6.604 0.104 2.209 0 4.399 0.020 6.604-0.104 2.562-0.124 5.608 0.068 7.481-1.806 1.877-1.877 1.685-4.923 1.809-7.485 0.128-2.206 0.104-4.395 0.104-6.604zM15.996 24.21c-4.543 0-8.209-3.666-8.209-8.21s3.666-8.21 8.209-8.21c4.543 0 8.209 3.667 8.209 8.21s-3.666 8.21-8.209 8.21zM24.541 9.372c-1.061 0-1.917-0.857-1.917-1.917s0.857-1.917 1.917-1.917c1.061 0 1.917 0.857 1.917 1.917 0 0.252-0.049 0.501-0.145 0.734s-0.237 0.444-0.416 0.622c-0.178 0.178-0.39 0.319-0.622 0.416s-0.482 0.146-0.734 0.145z"></path>
</symbol>
<symbol id="modal-close-btn" viewBox="0 0 32 32">
<path d="M23.734 10.304l-1.504-1.504-5.963 5.962-5.962-5.962-1.504 1.504 5.962 5.962-5.962 5.963 1.504 1.504 5.962-5.963 5.963 5.963 1.504-1.504-5.963-5.963 5.963-5.962z"></path>
</symbol>
<symbol id="menu" viewBox="0 0 32 32">
<path d="M6.4 11.734v-2.134h19.2v2.134h-19.2zM6.4 17.066h19.2v-2.133h-19.2v2.133zM6.4 22.4h19.2v-2.134h-19.2v2.134z"></path>
</symbol>
</defs>
</svg>
